{
  "accessors": [
    {
      "name": "Plants_1_3Dislands_blogspot_com_1_0_positions",
      "componentType": 5126,
      "count": 243,
      "min": [
        -130.6376953125,
        -2.844399929046631,
        -90.88349914550781
      ],
      "max": [
        77.11170196533203,
        44.080101013183594,
        174.3144989013672
      ],
      "type": "VEC3",
      "bufferView": 0,
      "byteOffset": 0
    },
    {
      "name": "Plants_1_3Dislands_blogspot_com_1_0_normals",
      "componentType": 5126,
      "count": 243,
      "min": [
        -1,
        -0.12290187925100327,
        -0.9999994039535522
      ],
      "max": [
        0.7578978538513184,
        0.28051504492759705,
        0.994327187538147
      ],
      "type": "VEC3",
      "bufferView": 1,
      "byteOffset": 0
    },
    {
      "name": "Plants_1_3Dislands_blogspot_com_1_0_texcoords",
      "componentType": 5126,
      "count": 243,
      "min": [
        0.02370000071823597,
        -0.0019000000320374966
      ],
      "max": [
        1.0055999755859375,
        0.9699000120162964
      ],
      "type": "VEC2",
      "bufferView": 2,
      "byteOffset": 0
    },
    {
      "name": "Plants_1_3Dislands_blogspot_com_1_0_indices",
      "componentType": 5123,
      "count": 648,
      "min": [
        0
      ],
      "max": [
        242
      ],
      "type": "SCALAR",
      "bufferView": 3,
      "byteOffset": 0
    },
    {
      "name": "Plants_2_3Dislands_blogspot_com_1_0_positions",
      "componentType": 5126,
      "count": 63,
      "min": [
        57.172298431396484,
        0.2240999937057495,
        58.722198486328125
      ],
      "max": [
        216.33189392089844,
        20.209699630737305,
        161.85220336914062
      ],
      "type": "VEC3",
      "bufferView": 0,
      "byteOffset": 2916
    },
    {
      "name": "Plants_2_3Dislands_blogspot_com_1_0_normals",
      "componentType": 5126,
      "count": 63,
      "min": [
        -0.9992663264274597,
        -0.12799672782421112,
        -0.04909880459308624
      ],
      "max": [
        0.9992663264274597,
        0.051398877054452896,
        0.04909880459308624
      ],
      "type": "VEC3",
      "bufferView": 1,
      "byteOffset": 2916
    },
    {
      "name": "Plants_2_3Dislands_blogspot_com_1_0_texcoords",
      "componentType": 5126,
      "count": 63,
      "min": [
        0.05079999938607216,
        0.094200000166893
      ],
      "max": [
        0.949999988079071,
        0.9905999898910522
      ],
      "type": "VEC2",
      "bufferView": 2,
      "byteOffset": 1944
    },
    {
      "name": "Plants_2_3Dislands_blogspot_com_1_0_indices",
      "componentType": 5123,
      "count": 168,
      "min": [
        0
      ],
      "max": [
        62
      ],
      "type": "SCALAR",
      "bufferView": 3,
      "byteOffset": 1296
    },
    {
      "name": "_Old_House_2__3D_Models__3Dislands_blogspot_com__1_0_positions",
      "componentType": 5126,
      "count": 7794,
      "min": [
        -128.40220642089844,
        -0.9628999829292297,
        -104.47879791259766
      ],
      "max": [
        259.30560302734375,
        248.95069885253906,
        258.7745056152344
      ],
      "type": "VEC3",
      "bufferView": 0,
      "byteOffset": 3672
    },
    {
      "name": "_Old_House_2__3D_Models__3Dislands_blogspot_com__1_0_normals",
      "componentType": 5126,
      "count": 7794,
      "min": [
        -1,
        -1,
        -1
      ],
      "max": [
        1,
        1,
        1
      ],
      "type": "VEC3",
      "bufferView": 1,
      "byteOffset": 3672
    },
    {
      "name": "_Old_House_2__3D_Models__3Dislands_blogspot_com__1_0_texcoords",
      "componentType": 5126,
      "count": 7794,
      "min": [
        0,
        0.004999999888241291
      ],
      "max": [
        1.0003999471664429,
        1
      ],
      "type": "VEC2",
      "bufferView": 2,
      "byteOffset": 2448
    },
    {
      "name": "_Old_House_2__3D_Models__3Dislands_blogspot_com__1_0_indices",
      "componentType": 5123,
      "count": 20532,
      "min": [
        0
      ],
      "max": [
        7793
      ],
      "type": "SCALAR",
      "bufferView": 3,
      "byteOffset": 1632
    }
  ],
  "asset": {
    "generator": "obj2gltf",
    "version": "2.0"
  },
  "buffers": [
    {
      "name": "OldHouse3DModels",
      "byteLength": 301896,
      "uri": "data:application/octet-stream;base64,"
    }
  ],
  "bufferViews": [
    {
      "name": "bufferView_0",
      "buffer": 0,
      "byteLength": 97200,
      "byteOffset": 0,
      "byteStride": 12,
      "target": 34962
    },
    {
      "name": "bufferView_1",
      "buffer": 0,
      "byteLength": 97200,
      "byteOffset": 97200,
      "byteStride": 12,
      "target": 34962
    },
    {
      "name": "bufferView_2",
      "buffer": 0,
      "byteLength": 64800,
      "byteOffset": 194400,
      "byteStride": 8,
      "target": 34962
    },
    {
      "name": "bufferView_3",
      "buffer": 0,
      "byteLength": 42696,
      "byteOffset": 259200,
      "target": 34963
    }
  ],
  "materials": [
    {
      "name": "Standard_2",
      "pbrMetallicRoughness": {
        "baseColorFactor": [
          0.5,
          0.5,
          0.5,
          1
        ],
        "metallicFactor": 0,
        "roughnessFactor": 1
      },
      "emissiveFactor": [
        0,
        0,
        0
      ],
      "alphaMode": "OPAQUE",
      "doubleSided": false
    },
    {
      "name": "Standard_3",
      "pbrMetallicRoughness": {
        "baseColorFactor": [
          0.5,
          0.5,
          0.5,
          1
        ],
        "metallicFactor": 0,
        "roughnessFactor": 1
      },
      "emissiveFactor": [
        0,
        0,
        0
      ],
      "alphaMode": "OPAQUE",
      "doubleSided": false
    },
    {
      "name": "Standard_1",
      "pbrMetallicRoughness": {
        "baseColorFactor": [
          0.5,
          0.5,
          0.5,
          1
        ],
        "metallicFactor": 0,
        "roughnessFactor": 1
      },
      "emissiveFactor": [
        0,
        0,
        0
      ],
      "alphaMode": "OPAQUE",
      "doubleSided": false
    }
  ],
  "meshes": [
    {
      "name": "Plants_1_3Dislands_blogspot_com_1",
      "primitives": [
        {
          "attributes": {
            "POSITION": 0,
            "NORMAL": 1,
            "TEXCOORD_0": 2
          },
          "indices": 3,
          "material": 0,
          "mode": 4
        }
      ]
    },
    {
      "name": "Plants_2_3Dislands_blogspot_com_1",
      "primitives": [
        {
          "attributes": {
            "POSITION": 4,
            "NORMAL": 5,
            "TEXCOORD_0": 6
          },
          "indices": 7,
          "material": 1,
          "mode": 4
        }
      ]
    },
    {
      "name": "_Old_House_2__3D_Models__3Dislands_blogspot_com__1",
      "primitives": [
        {
          "attributes": {
            "POSITION": 8,
            "NORMAL": 9,
            "TEXCOORD_0": 10
          },
          "indices": 11,
          "material": 2,
          "mode": 4
        }
      ]
    }
  ],
  "nodes": [
    {
      "name": "Plants_1_3Dislands_blogspot_com",
      "mesh": 0
    },
    {
      "name": "Plants_2_3Dislands_blogspot_com",
      "mesh": 1
    },
    {
      "name": "_Old_House_2__3D_Models__3Dislands_blogspot_com_",
      "mesh": 2
    }
  ],
  "scene": 0,
  "scenes": [
    {
      "nodes": [
        0,
        1,
        2
      ]
    }
  ]
}
